<?xml version="1.0" encoding="UTF-8" standalone="no"?> <svg width="512" height="512" viewBox="0 0 512 512" fill="none" xmlns="http://www.w3.org/2000/svg">
<path fill-rule="evenodd" clip-rule="evenodd" d="M128 32C74.9807 32 32 74.9807 32 128V384C32 437.019 74.9807 480 128 480H384C437.019 480 480 437.019 480 384V128C480 74.9807 437.019 32 384 32H128ZM172 128C172 116.954 163.046 108 152 108C140.954 108 132 116.954 132 128V384C132 395.046 140.954 404 152 404C163.046 404 172 395.046 172 384V276H340V384C340 395.046 348.954 404 360 404C371.046 404 380 395.046 380 384V128C380 116.954 371.046 108 360 108C348.954 108 340 116.954 340 128V236H172V128Z" fill="black"/>
</svg>
